{
    "asset": {
        "version": "2.0",
        "generator": "Open Asset Import Library (assimp v5.3.0)"
    },
    "extensionsUsed": [
        "KHR_materials_specular",
        "KHR_materials_volume",
        "FB_ngon_encoding"
    ],
    "accessors": [
        {
            "bufferView": 0,
            "byteOffset": 0,
            "componentType": 5126,
            "count": 744,
            "type": "VEC3",
            "max": [
                1.100000023841858,
                0.09999939799308777,
                0.5
            ],
            "min": [
                -0.09999939799308777,
                -0.09999939799308777,
                0.0
            ]
        },
        {
            "bufferView": 1,
            "byteOffset": 0,
            "componentType": 5126,
            "count": 744,
            "type": "VEC3",
            "max": [
                1.0,
                1.0,
                1.0
            ],
            "min": [
                -1.0,
                -1.0,
                -1.0
            ]
        },
        {
            "bufferView": 2,
            "byteOffset": 0,
            "componentType": 5125,
            "count": 1476,
            "type": "SCALAR",
            "max": [
                743
            ],
            "min": [
                0
            ]
        }
    ],
    "buffers": [
        {
            "byteLength": 23760,
            "uri": "railing.bin"
        }
    ],
    "bufferViews": [
        {
            "buffer": 0,
            "byteOffset": 0,
            "byteLength": 8928,
            "target": 34962
        },
        {
            "buffer": 0,
            "byteOffset": 8928,
            "byteLength": 8928,
            "target": 34962
        },
        {
            "buffer": 0,
            "byteOffset": 17856,
            "byteLength": 5904,
            "target": 34963
        }
    ],
    "materials": [
        {
            "name": "DefaultMaterial",
            "pbrMetallicRoughness": {
                "metallicFactor": 0.0
            },
            "extensions": {
                "KHR_materials_specular": {
                    "specularFactor": 1.0,
                    "specularColorFactor": [
                        1.0,
                        1.0,
                        1.0
                    ]
                }
            }
        }
    ],
    "meshes": [
        {
            "name": "OpenSCAD_Model",
            "primitives": [
                {
                    "mode": 4,
                    "material": 0,
                    "indices": 2,
                    "attributes": {
                        "POSITION": 0,
                        "NORMAL": 1
                    }
                }
            ]
        }
    ],
    "nodes": [
        {
            "children": [
                1
            ]
        },
        {
            "name": "OpenSCAD_Model",
            "mesh": 0
        }
    ],
    "scenes": [
        {
            "nodes": [
                0
            ]
        }
    ],
    "scene": 0
}