{
    "asset": {
        "version": "2.0",
        "generator": "Open Asset Import Library (assimp v5.3.0)"
    },
    "extensionsUsed": [
        "KHR_materials_specular",
        "KHR_materials_volume",
        "FB_ngon_encoding"
    ],
    "accessors": [
        {
            "bufferView": 0,
            "byteOffset": 0,
            "componentType": 5126,
            "count": 1456,
            "type": "VEC3",
            "max": [
                1.0,
                0.8999999761581421,
                0.3246150016784668
            ],
            "min": [
                0.0,
                -0.09999939799308777,
                0.0
            ]
        },
        {
            "bufferView": 1,
            "byteOffset": 0,
            "componentType": 5126,
            "count": 1456,
            "type": "VEC3",
            "max": [
                1.0,
                1.0,
                1.0
            ],
            "min": [
                -1.0,
                -1.0,
                -1.0
            ]
        },
        {
            "bufferView": 2,
            "byteOffset": 0,
            "componentType": 5125,
            "count": 1740,
            "type": "SCALAR",
            "max": [
                1455
            ],
            "min": [
                0
            ]
        }
    ],
    "buffers": [
        {
            "byteLength": 41904,
            "uri": "stairs-cut-y-pos.bin"
        }
    ],
    "bufferViews": [
        {
            "buffer": 0,
            "byteOffset": 0,
            "byteLength": 17472,
            "target": 34962
        },
        {
            "buffer": 0,
            "byteOffset": 17472,
            "byteLength": 17472,
            "target": 34962
        },
        {
            "buffer": 0,
            "byteOffset": 34944,
            "byteLength": 6960,
            "target": 34963
        }
    ],
    "materials": [
        {
            "name": "DefaultMaterial",
            "pbrMetallicRoughness": {
                "metallicFactor": 0.0
            },
            "extensions": {
                "KHR_materials_specular": {
                    "specularFactor": 1.0,
                    "specularColorFactor": [
                        1.0,
                        1.0,
                        1.0
                    ]
                }
            }
        }
    ],
    "meshes": [
        {
            "name": "OpenSCAD_Model",
            "primitives": [
                {
                    "mode": 4,
                    "material": 0,
                    "indices": 2,
                    "attributes": {
                        "POSITION": 0,
                        "NORMAL": 1
                    }
                }
            ]
        }
    ],
    "nodes": [
        {
            "children": [
                1
            ]
        },
        {
            "name": "OpenSCAD_Model",
            "mesh": 0
        }
    ],
    "scenes": [
        {
            "nodes": [
                0
            ]
        }
    ],
    "scene": 0
}